<?xml version="1.0" standalone="no"?>
<!DOCTYPE svg PUBLIC "-//W3C//DTD SVG 20010904//EN"
 "http://www.w3.org/TR/2001/REC-SVG-20010904/DTD/svg10.dtd">
<svg version="1.0" xmlns="http://www.w3.org/2000/svg"
 width="128.000000pt" height="128.000000pt" viewBox="0 0 128.000000 128.000000"
 preserveAspectRatio="xMidYMid meet">
<metadata>
Created by potrace 1.14, written by Peter Selinger 2001-2017
</metadata>
<g transform="translate(0.000000,128.000000) scale(0.100000,-0.100000)"
fill="#000000" stroke="none">
<path d="M475 1233 c-55 -14 -106 -29 -112 -35 -7 -6 -13 -32 -13 -58 0 -30
-6 -52 -15 -60 -8 -7 -50 -13 -98 -14 -93 -2 -102 -6 -179 -79 l-48 -44 0 -92
0 -91 52 -34 c29 -18 83 -50 121 -70 58 -33 67 -35 68 -19 0 10 2 27 4 38 2
11 7 54 11 95 3 41 8 83 9 92 4 21 49 101 82 146 23 30 27 32 89 32 36 0 64 4
64 10 0 6 13 18 29 28 25 15 116 21 232 13 19 -1 190 -171 200 -199 4 -10 7
-64 7 -120 0 -98 -2 -105 -33 -157 -18 -29 -31 -56 -29 -58 2 -2 18 -2 35 1
26 4 47 26 135 143 94 125 119 171 97 181 -5 2 -42 41 -83 88 -114 130 -105
123 -146 108 l-35 -12 -64 66 c-55 56 -76 70 -145 97 -96 36 -104 37 -235 4z"/>
<path d="M576 1048 c-27 -15 -125 -173 -135 -218 -10 -46 -17 -39 103 -97 l69
-34 56 17 c35 10 73 14 103 11 45 -6 47 -5 50 21 8 67 -4 103 -46 148 -41 42
-45 44 -99 44 -55 0 -57 -1 -82 -40 -14 -22 -25 -44 -25 -50 0 -10 53 -35 96
-46 17 -4 27 1 40 20 15 25 15 28 0 45 -20 22 -20 31 -2 31 8 0 24 -12 35 -26
21 -27 21 -27 2 -58 -11 -17 -26 -35 -34 -40 -17 -11 -119 19 -152 46 -27 21
-25 37 20 108 l25 40 74 0 74 0 43 -45 c58 -61 60 -65 63 -147 2 -72 2 -73 34
-82 18 -5 35 -6 38 -3 5 5 8 118 5 184 -1 14 -31 53 -79 101 l-78 79 -91 0
c-49 0 -98 -4 -107 -9z"/>
<path d="M423 1002 c-16 -2 -34 -25 -63 -76 -22 -41 -40 -76 -40 -79 0 -6 59
-37 72 -37 4 0 8 12 8 28 0 15 16 53 35 86 20 32 37 63 38 68 2 12 -18 16 -50
10z"/>
<path d="M319 808 c-6 -25 -14 -97 -23 -203 -1 -11 3 -39 10 -62 6 -23 10 -44
7 -46 -2 -3 0 -8 5 -11 6 -3 15 17 22 46 17 82 27 91 134 123 53 17 96 32 96
35 0 3 -52 30 -116 60 -129 61 -134 63 -135 58z"/>
<path d="M1097 631 c-37 -49 -74 -94 -82 -101 -11 -9 -69 -13 -203 -14 l-187
-2 -165 -93 c-197 -112 -194 -109 -179 -127 6 -8 92 -55 192 -105 l180 -91 71
7 c39 3 80 8 91 10 11 2 47 7 80 10 122 12 127 15 204 126 48 69 68 107 65
122 -2 12 -10 44 -17 71 l-13 49 -66 -90 c-37 -49 -75 -96 -85 -105 -25 -23
-241 -101 -275 -100 -35 1 -248 121 -248 139 0 9 43 -8 116 -46 l117 -60 91
33 c148 54 160 61 196 110 134 179 139 184 195 205 30 11 66 23 80 27 l27 7
-44 44 c-70 72 -66 73 -141 -26z"/>
<path d="M710 685 c-170 -49 -287 -89 -302 -103 -9 -10 -23 -49 -31 -89 l-14
-72 46 26 c25 14 56 32 68 39 110 68 112 68 241 70 l123 3 35 45 c18 24 34 47
34 49 0 4 -92 31 -140 42 -8 2 -35 -3 -60 -10z"/>
<path d="M78 589 c-43 -21 -78 -44 -78 -49 0 -9 25 -67 106 -248 28 -62 26
-60 282 -190 l193 -97 24 29 c13 17 21 34 19 38 -3 5 -86 49 -184 98 -98 49
-188 99 -198 110 -25 27 -18 55 22 82 17 12 33 23 34 24 2 1 -7 44 -20 95 -22
90 -24 93 -67 121 -25 15 -47 28 -50 28 -4 -1 -41 -19 -83 -41z"/>
</g>
</svg>
